<svg aria-hidden="true" style="position: absolute; width: 0; height: 0; overflow: hidden;" version="1.1" xmlns="http://www.w3.org/2000/svg" xmlns:xlink="http://www.w3.org/1999/xlink">
<defs>
<symbol id="icon-close" viewBox="0 0 32 32">
<path d="M2.639 0v3.299h-2.639v28.701h28.701v-4.618h3.299v-27.382h-29.361zM27.71 31.009h-26.719v-26.719h26.719v26.719zM31.009 26.39h-2.308v-23.092h-25.071v-2.308h27.379v25.399z"></path>
<path d="M5.963 23.482c0 0.31 0.12 0.601 0.338 0.819l1.399 1.399c0.218 0.218 0.509 0.338 0.819 0.338s0.601-0.12 0.819-0.338l5.013-5.013 5.013 5.013c0.218 0.218 0.509 0.338 0.819 0.338s0.601-0.12 0.819-0.338l1.399-1.399c0.452-0.452 0.452-1.186 0-1.638l-5.013-5.013 5.013-5.013c0.451-0.452 0.451-1.186 0-1.638l-1.399-1.399c-0.451-0.451-1.186-0.452-1.638 0l-5.013 5.013-5.013-5.013c-0.452-0.451-1.186-0.452-1.638 0l-1.399 1.399c-0.218 0.218-0.338 0.509-0.338 0.819s0.12 0.601 0.338 0.819l5.013 5.013-5.013 5.013c-0.218 0.218-0.338 0.509-0.338 0.819zM7.002 23.364l5.714-5.714-5.714-5.714c-0.042-0.042-0.048-0.092-0.048-0.118s0.006-0.076 0.048-0.118l1.399-1.399c0.064-0.064 0.172-0.064 0.236 0l5.714 5.714 5.714-5.714c0.064-0.064 0.172-0.064 0.236 0l1.399 1.399c0.064 0.064 0.064 0.172 0 0.236l-5.714 5.714 5.714 5.714c0.064 0.064 0.064 0.172 0 0.236l-1.399 1.399c-0.042 0.042-0.092 0.048-0.118 0.048s-0.076-0.006-0.118-0.048l-5.714-5.714-5.714 5.714c-0.042 0.042-0.092 0.048-0.118 0.048s-0.076-0.006-0.118-0.048l-1.399-1.399c-0.042-0.042-0.048-0.092-0.048-0.118s0.006-0.076 0.048-0.118z"></path>
</symbol>
<symbol id="icon-edit" viewBox="0 0 32 32">
<path d="M12 20l4-2 14-14-2-2-14 14-2 4zM9.041 27.097c-0.989-2.085-2.052-3.149-4.137-4.137l3.097-8.525 4-2.435 12-12h-6l-12 12-6 20 20-6 12-12v-6l-12 12-2.435 4z"></path>
</symbol>
</defs>
</svg>
